<?xml version="1.0" encoding="UTF-8" standalone="no"?>
<svg
   width="1024"
   height="1024"
   viewBox="0 0 1024 1024"
   version="1.1"
   id="svg27"
   sodipodi:docname="logo.svg"
   inkscape:version="1.4.3 (1:1.4.3+202512261034+0d15f75042)"
   inkscape:export-filename="logo.png"
   inkscape:export-xdpi="96"
   inkscape:export-ydpi="96"
   xmlns:inkscape="http://www.inkscape.org/namespaces/inkscape"
   xmlns:sodipodi="http://sodipodi.sourceforge.net/DTD/sodipodi-0.dtd"
   xmlns="http://www.w3.org/2000/svg"
   xmlns:svg="http://www.w3.org/2000/svg">
  <defs
     id="defs27" />
  <sodipodi:namedview
     id="namedview27"
     pagecolor="#ffffff"
     bordercolor="#666666"
     borderopacity="1.0"
     inkscape:showpageshadow="2"
     inkscape:pageopacity="0.0"
     inkscape:pagecheckerboard="0"
     inkscape:deskcolor="#d1d1d1"
     inkscape:zoom="0.55726091"
     inkscape:cx="421.70552"
     inkscape:cy="765.35065"
     inkscape:window-width="1850"
     inkscape:window-height="1016"
     inkscape:window-x="70"
     inkscape:window-y="27"
     inkscape:window-maximized="1"
     inkscape:current-layer="g27" />
  <g
     id="g27"
     transform="matrix(2.009871,0,0,2.009871,-522.46819,-511.92827)">
    <path
       id="path9"
       style="display:inline;fill:#5762ee;fill-opacity:1"
       inkscape:label="fundo azul"
       d="m 258.02454,144.5542 c -7.25087,-0.17225 -14.22088,0.0554 -15.81938,1.72294 -6.25,6.518 6.98278,18.01373 -8.20122,22.00273 -8.659,2.275 -17.51716,5.84589 -24.69016,11.25889 -2.042,-1.255 -3.54389,-2.57674 -5.37289,-4.10474 -1.935,-1.888 -5.54777,-5.77881 -7.70077,-7.07981 -2.253,-0.624 -4.75088,-1.50413 -6.99088,-0.13313 -4.979,3.047 -22.48234,19.17295 -21.53434,24.67995 3.598,3.303 6.19821,4.75577 8.59721,9.04277 4.885,2.794 5.4117,4.60929 2.4197,9.21429 -6.078,9.356 -6.92259,21.01389 -11.63059,28.27889 -5.021,0.005 -20.5122,-1.84687 -20.7302,3.91913 -0.39,10.286 -0.0168,20.62389 -0.12682,30.91189 0.0323,1.22394 -0.0358,2.89348 0,4.39676 2.089,5.603 10.86162,4.14802 16.00062,4.09502 3.86102,-0.30044 4.43275,-0.35564 7.87423,-0.72299 1.83177,4.51584 3.09758,10.11065 4.53377,12.98814 12.373,24.782 3.9294,10.63 -7.5516,31.166 1.075,1.775 17.5199,18.045 19.3299,19.309 l 0.31485,-0.18804 c 3.856,-2.33 14.68998,-15.51084 17.70898,-14.18584 6.564,2.881 12.26318,6.67305 19.18218,9.03305 3.402,1.161 11.58404,2.4821 12.59604,6.1061 6.272,2.559 4.82063,11.99065 4.77963,17.65165 3.402,-0.377 8.71629,0.72438 12.32929,0.77838 7.113,0.106 14.71575,-0.67305 21.72675,-1.78805 0.286,-4.69 -1.90868,-17.68841 2.74232,-19.43241 5.44,-2.039 11.05804,-3.52698 16.29604,-6.10998 3.994,-1.915 7.65362,-4.48193 11.64662,-6.30093 4.46,2.596 12.73908,10.82207 17.24108,14.43607 2.363,-1.995 22.96095,-20.26911 22.88995,-23.65911 -1.751,-5.724 -10.6818,-11.99797 -12.4318,-17.43397 -0.185,-0.572 6.93381,-13.93871 7.76781,-16.10071 7.535,-19.554 1.49418,-14.55319 26.08318,-14.58719 2.274,-8.43 3.9129,-26.53673 1.5869,-33.75673 -1.903,0.415 -13.94706,-0.19924 -16.19206,-0.52524 -0.677,-1.422 -1.12989,-3.61218 -1.50089,-5.19118 -7.181,0.175 -5.70619,-2.26062 -7.61719,-9.01362 -1.52,-5.373 -10.33764,-23.02195 -10.28664,-23.19995 3.191,-11.141 23.9538,-9.68821 5.6518,-26.59821 -1.489,-0.184 -5.17978,-3.91801 -6.34078,-4.88701 -11.83,-9.873 -17.91538,13.56723 -24.69938,8.88923 -5.265,-3.63 -10.72993,-6.6131 -16.71293,-8.9111 -5.757,-2.212 -10.05303,-0.83126 -9.61903,-6.92626 -1.662,-0.792 -4.01895,-0.68073 -5.45695,-1.74773 -1.026,-0.76 -0.44492,-14.36809 -0.58792,-16.62109 -2.722,0.0685 -10.25355,-0.50361 -17.50443,-0.67586 z m 21.75445,2.478 c -0.177,3.494 -0.113,9.03403 0,12.56203 h 2.96777 c -0.044,-4.966 1.93523,-10.66403 -2.96777,-12.56203 z m 71.419,40.10286 c -3.093,7.61 -8.83097,9.09396 -13.28697,15.66196 1.308,2.219 2.68617,4.49079 3.93517,6.73579 2.681,-2.822 13.31198,-12.56394 13.50998,-16.28194 0.142,-2.661 -2.42216,-4.24887 -3.93516,-5.87287 z m -98.87723,19.6049 c 13.74657,-0.62804 27.93428,4.82385 38.12628,17.0511 2.206,2.646 3.62273,6.21312 5.80873,8.66912 1.692,0.669 5.38124,7.77887 6.18724,9.65887 15.063,35.144 -20.84881,72.12591 -56.33281,58.73891 -2.889,-1.09 -14.39633,-7.38472 -15.92433,-9.80172 -0.123,-0.459 -5.22683,-4.73142 -5.92583,-5.38942 -12.579,-11.83 -19.19227,-31.08885 -13.34527,-47.82985 6.78656,-19.43157 23.73183,-30.28954 41.40599,-31.09701 z m 2.92356,4.17276 c -9.4255,-0.0616 -18.87201,3.07433 -26.60551,9.41933 -15.468,12.69 -19.686,34.60689 -10.033,52.13089 -0.472,-2.42 -0.98596,-4.86887 -1.29196,-7.28387 -3.67301,-28.98263 15.98988,-47.90365 40.52314,-48.97411 1.63555,-0.0714 3.29284,-0.0634 4.96621,0.0262 6.17798,0.33085 12.57619,1.77414 18.91981,4.4468 -7.6502,-6.44458 -17.05387,-9.70368 -26.47869,-9.76528 z m 118.76491,32.93851 c -0.365,10.544 1.46884,24.16859 -4.41716,33.58959 -0.862,1.379 -17.69795,0.61096 -20.05095,0.62096 -2.094,5.072 -3.22818,9.89232 -5.55218,14.97832 -1.776,3.887 -4.51392,7.71384 -6.07792,11.39784 1.619,1.703 3.80987,4.37412 5.28787,5.84712 5.559,-10.064 7.90927,-15.57607 11.12527,-26.67207 3.101,-0.052 18.38408,0.76609 20.04608,-0.22691 4.901,-2.93 4.91469,-35.66032 2.48869,-38.65832 -0.72,-0.89 -1.8047,-0.80753 -2.8497,-0.87653 z m -24.46811,75.28371 c 2.193,9.176 -19.74422,27.64002 -26.54622,29.73702 3.058,2.973 5.96306,7.20126 10.22006,3.36426 5.841,-5.265 20.38311,-17.70432 22.33411,-24.99432 -0.846,-4.001 -1.91195,-6.65396 -6.00795,-8.10696 z m -145.60023,16.9272 -0.40766,0.23371 c -8.498,4.78 -6.99143,11.66511 -18.34743,12.57611 9.865,12.474 15.49998,-0.0892 24.12798,-8.56515 8.708,4.225 21.62033,8.07158 31.64033,10.88558 l 3.01333,-3.51178 c -4.801,-1.677 -19.79731,-2.36949 -25.18331,-4.75149 -4.314,-1.908 -10.79224,-5.57698 -14.84324,-6.86698 z m 101.81293,0 c -10.584,5.837 -15.05762,8.08566 -26.77362,11.28366 0.013,3.079 0.62672,16.70033 -1.14328,18.19633 -5.481,4.632 -26.6901,2.7127 -35.3621,3.1767 0.636,10.141 35.21606,5.77515 40.50906,2.98915 1.611,-0.848 1.19112,-16.12322 1.09712,-18.71622 9.05,-2.023 19.48578,-6.75787 27.38778,-11.55187 -1.085,-1.43 -4.19096,-3.90175 -5.71496,-5.37775 z"
       transform="scale(2)"
       sodipodi:nodetypes="scccccccccccccccccccccccccccccccccccccccccccccsccccccccccscccccccsccccsscscccccccccccccccccccccccccccscccc" />
    <path
       id="path1"
       style="display:inline;fill:#000000;fill-opacity:1;stroke:#000000;stroke-opacity:1;stroke-width:2.48772185;stroke-dasharray:none"
       inkscape:label="linha preta"
       d="m 255.58881,134.39535 c -8.11439,-0.15197 -17.24599,0.49154 -23.25874,4.24079 -3.18,2.117 -2.1622,15.75662 -2.1442,19.61462 -11.198,3.278 -16.79598,7.53634 -26.24498,11.43234 -2.898,-2.748 -12.49483,-13.15632 -15.85583,-12.51732 -7.814,1.485 -29.71806,21.41229 -29.77006,30.24429 0.162,4.373 10.41115,12.55773 13.24615,14.53373 -3.696,5.248 -10.11503,21.0143 -11.01303,27.3873 -10.181,-0.416 -24.1649,-2.77312 -24.2169,10.75988 -0.036,9.309 -0.12338,19.08408 -0.0573,28.44408 -0.049,6.489 2.96532,10.6207 9.97032,10.1297 4.38,-0.237 10.39084,-0.02 14.89184,0 0.363,1.362 0.71678,2.74102 1.10878,4.09502 2.907,9.284 5.77233,13.57316 9.31633,21.67816 -3.113,2.304 -5.06404,4.98282 -7.82904,7.69882 -10.777,10.59 -2.30305,14.99517 5.52595,22.74517 l 8.76971,8.6079 c 2.059,1.998 4.30503,4.83813 7.15803,5.38213 11.356,-0.911 9.84943,-7.79611 18.34743,-12.57611 l 0.40766,-0.23371 c 4.051,1.29 10.52924,4.95898 14.84324,6.86698 5.386,2.382 8.6638,2.73968 13.4648,4.41668 v 3.73499 c -0.10902,19.28175 -2.40506,10.78906 10.22589,17.63804 4.33589,-0.23199 11.80632,0.13195 18.87754,-0.0253 3.5357,-0.0786 6.97172,-0.28754 9.86634,-0.76623 1.44731,-0.23936 2.75933,-0.54603 3.88075,-0.93776 0.84091,-0.29374 1.57487,-0.63542 2.17821,-1.03201 0.20114,-0.13223 0.38797,-0.27068 0.55926,-0.41543 0.0276,-0.0234 0.0546,-0.05 0.0811,-0.0792 0.0214,-0.0236 0.0425,-0.0504 0.0632,-0.0777 0.005,-0.006 0.0102,-0.0118 0.0151,-0.0185 0.0507,-0.0696 0.099,-0.1503 0.14528,-0.24148 v -4.9e-4 c 0.0463,-0.0912 0.0905,-0.19277 0.13265,-0.30416 v -4.9e-4 c 0.12645,-0.33459 0.23457,-0.75712 0.32651,-1.24872 v -4.8e-4 c 0.0613,-0.32773 0.11549,-0.68625 0.16326,-1.06992 v -4.8e-4 c 0.57342,-4.60636 0.22597,-12.84545 0.21622,-15.1547 11.71585,-3.19797 16.18968,-5.4467 26.77362,-11.28366 1.14293,1.10693 3.17575,2.77399 4.57848,4.14166 0.46768,0.456 0.86518,0.87853 1.13648,1.23609 1.56834,1.83527 7.01545,7.01403 8.97134,8.39995 0.821,-0.319 1.72478,-0.69688 2.55478,-0.96788 6.802,-2.097 28.73922,-20.56102 26.54622,-29.73702 -0.829,-0.782 -4.93123,-7.07588 -6.34223,-8.84988 -1.478,-1.47301 -3.66888,-4.14413 -5.28787,-5.84712 1.564,-3.684 4.30192,-7.51084 6.07792,-11.39784 2.324,-5.086 3.45818,-9.90632 5.55218,-14.97832 2.353,-0.01 19.18895,0.75804 20.05095,-0.62096 5.886,-9.421 4.05216,-23.04559 4.41716,-33.58959 -0.78496,-3.63921 -0.83134,-14.39841 -6.32523,-14.33841 -6.022,0.067 -12.12188,0.20536 -18.14288,0.55536 -1.866,-7.14 -4.39093,-13.93437 -7.69493,-20.53537 -1.249,-2.245 -2.62717,-4.51679 -3.93517,-6.73579 4.456,-6.568 10.19397,-8.05196 13.28697,-15.66196 0.64194,-7.65502 -17.55921,-23.50519 -23.1742,-28.06219 -7.327,-5.946 -18.07567,4.95623 -23.29567,10.61023 -5.709,-4.566 -14.87436,-8.16687 -21.98136,-10.08887 h -2.96777 c -0.113,-3.528 -0.177,-9.06803 0,-12.56203 0.9709,-12.17179 -6.59218,-11.69599 -16.56813,-12.30499 -2.3255,-0.14175 -4.91725,-0.2812 -7.62205,-0.33186 z m -0.43049,4.48422 c 9.13712,0.027 18.17907,0.93865 19.49557,2.12865 1.076,0.973 0.86108,2.90184 0.87508,4.22184 0.143,2.253 -0.43808,15.86109 0.58792,16.62109 1.438,1.067 3.79495,0.95573 5.45695,1.74773 7.848,2.862 14.90896,5.50513 22.08096,9.90813 3.734,2.293 15.65296,-14.20905 19.53396,-12.06205 5.208,2.881 11.5542,9.62506 15.7572,13.98906 18.302,16.91 -2.4608,15.45721 -5.6518,26.59821 -0.051,0.178 8.76664,17.82695 10.28664,23.19995 1.911,6.753 0.43619,9.18862 7.61719,9.01362 2.898,0.024 14.82311,-0.51288 16.44811,0.16812 0.834,1.455 0.68884,3.7613 1.24484,5.5483 2.326,7.22 0.6871,25.32673 -1.5869,33.75673 -24.589,0.034 -18.54818,-4.96681 -26.08318,14.58719 -0.834,2.162 -7.95281,15.52871 -7.76781,16.10071 1.75,5.436 10.6808,11.70997 12.4318,17.43397 0.071,3.39 -20.52695,21.66411 -22.88995,23.65911 -4.502,-3.614 -12.78108,-11.84007 -17.24108,-14.43607 -3.993,1.819 -7.65262,4.38593 -11.64662,6.30093 -5.238,2.583 -10.85604,4.07098 -16.29604,6.10998 -4.651,1.744 -2.45632,14.74241 -2.74232,19.43241 -7.011,1.115 -14.61375,1.89405 -21.72675,1.78805 -3.613,-0.054 -8.92729,-1.15538 -12.32929,-0.77838 -1.609,-0.64 -3.15163,-1.22286 -4.77963,-1.81186 V 346.2652 c -1.012,-3.624 -9.19404,-4.9451 -12.59604,-6.1061 -6.919,-2.36 -12.61818,-6.15205 -19.18218,-9.03305 -3.019,-1.325 -13.85298,11.85584 -17.70898,14.18584 l -0.31485,0.18804 c -1.81,-1.264 -18.2549,-17.534 -19.3299,-19.309 -2.774,-2.117 -3.3724,-2.44092 -4.8564,-5.45792 5.463,-9.77 17.17599,-11.87797 11.46199,-21.27197 -4.646,-7.639 -6.58486,-15.68509 -9.10886,-24.19309 -1.393,-2.156 -15.27475,-1.01195 -18.35375,-0.99995 -2.186,0.035 -4.3442,-0.0471 -5.2592,-2.42213 -0.969,-2.518 -0.83696,-29.17273 -0.46596,-33.18873 0.879,-9.508 15.64274,-3.35826 21.67574,-5.51526 2.779,-0.993 2.96632,-5.38077 3.72332,-7.80377 2.6,-8.328 6.40301,-15.66331 10.39401,-23.39431 -2.399,-4.287 -4.99921,-5.73977 -8.59721,-9.04277 -2.169,-1.913 -3.99008,-3.24897 -5.47008,-5.76597 2.92,-6.839 20.21302,-25.41218 25.53802,-25.56718 2.522,-0.073 6.66228,5.12133 8.45728,6.78633 2.153,1.301 5.76577,5.19181 7.70077,7.07981 12.306,-6.74 15.47233,-9.67093 30.62133,-13.83893 -0.009,-2.912 -0.50742,-18.10233 0.53058,-19.53833 1.696,-2.347 10.92839,-3.20419 20.06552,-3.17719 z"
       transform="scale(2)" />
    <path
       id="path10"
       d="m 252.32076,206.73996 c -17.67416,0.80747 -34.61943,11.66544 -41.40599,31.09701 -5.847,16.741 0.76627,35.99985 13.34527,47.82985 0.699,0.658 5.80283,4.93042 5.92583,5.38942 7.04,3.373 11.11196,5.52853 19.05196,6.71053 31.294,4.657 56.95431,-23.57499 50.53331,-54.22699 -0.805,-3.84 -2.21137,-7.3906 -3.51537,-11.0796 -2.186,-2.456 -3.60273,-6.02312 -5.80873,-8.66912 -10.192,-12.22725 -24.37971,-17.67914 -38.12628,-17.0511 z m 2.92356,4.17276 c 9.42482,0.0616 18.82849,3.3207 26.47869,9.76528 v 4.9e-4 h 4.8e-4 4.9e-4 c 1.6e-4,6e-5 8.2e-4,4.2e-4 9.7e-4,4.8e-4 12.744,10.737 17.83395,28.05423 12.92595,43.97923 -4.907,15.925 -18.86086,27.37377 -35.43886,29.07477 -16.577,1.701 -32.56523,-6.67303 -40.60623,-21.27003 -9.653,-17.524 -5.435,-39.44089 10.033,-52.13089 7.7335,-6.345 17.18001,-9.48095 26.60551,-9.41933 z"
       transform="scale(2)"
       inkscape:label="circulo"
       style="display:inline;fill:#000000;fill-opacity:1;stroke:#000000;stroke-opacity:1;stroke-width:2.48772185;stroke-dasharray:none" />
  </g>
</svg>
