<?xml version="1.0" encoding="UTF-8" standalone="no"?>
<svg
   width="1024"
   height="1024"
   viewBox="0 0 1024 1024"
   version="1.1"
   id="svg20"
   sodipodi:docname="logo.svg"
   inkscape:version="1.4.3 (1:1.4.3+202512261034+0d15f75042)"
   inkscape:export-filename="logo.png"
   inkscape:export-xdpi="96"
   inkscape:export-ydpi="96"
   xmlns:inkscape="http://www.inkscape.org/namespaces/inkscape"
   xmlns:sodipodi="http://sodipodi.sourceforge.net/DTD/sodipodi-0.dtd"
   xmlns="http://www.w3.org/2000/svg"
   xmlns:svg="http://www.w3.org/2000/svg">
  <defs
     id="defs20" />
  <sodipodi:namedview
     id="namedview20"
     pagecolor="#ffffff"
     bordercolor="#666666"
     borderopacity="1.0"
     inkscape:showpageshadow="2"
     inkscape:pageopacity="0.0"
     inkscape:pagecheckerboard="0"
     inkscape:deskcolor="#d1d1d1"
     inkscape:zoom="0.40722656"
     inkscape:cx="-304.4988"
     inkscape:cy="529.18945"
     inkscape:window-width="1850"
     inkscape:window-height="1016"
     inkscape:window-x="70"
     inkscape:window-y="27"
     inkscape:window-maximized="1"
     inkscape:current-layer="svg20" />
  <g
     id="g20"
     transform="matrix(1.3945675,0,0,1.3945675,-116.45494,-303.73826)">
    <path
       id="path1"
       d="M 233.11504 130.04773 C 226.94595 129.94665 220.2166 130.69373 213.7591 130.4931 C 204.5021 130.2051 197.48635 130.85337 192.23935 139.51737 C 190.25535 142.79337 189.15052 164.89955 190.29052 167.52155 C 176.84952 170.71355 169.1056 173.87134 157.0806 181.13534 C 141.7506 166.60534 135.26898 155.11943 116.91498 174.16843 C 109.41498 181.95143 95.098326 192.00173 95.651526 203.03673 C 95.918626 210.63573 108.20061 222.49348 114.85061 226.68948 C 108.18061 235.95948 105.28668 246.30532 101.67868 256.75032 L 87.838003 256.72861 C 64.866303 256.69161 62.316576 263.3434 62.365976 285.3014 L 62.370178 300.31291 C 62.420178 312.92291 68.531136 320.14975 81.240836 320.73675 C 86.662336 331.03775 93.53846 330.82239 104.04416 330.72739 C 107.34616 340.47239 109.63742 345.14999 113.82542 354.25899 C 110.17742 357.82399 99.334026 367.89428 97.256526 371.61428 C 90.439526 383.82128 104.6971 393.60613 112.1651 401.16113 C 114.7281 403.75413 121.53618 411.99606 124.94418 412.74206 C 142.48818 436.01306 153.01706 418.55481 168.19306 403.76681 C 175.11706 407.26781 182.86152 410.51306 190.29052 412.74206 L 190.28772 423.802 C 190.31372 434.967 193.22981 446.09946 206.56881 446.69846 C 209.40581 452.25846 213.95117 454.84693 220.10417 454.89993 L 240.21009 454.90133 C 259.19109 454.87333 263.54231 452.94221 263.51131 432.92921 L 263.4868 421.45122 C 274.24679 418.31822 285.00676 413.4567 294.65476 407.7457 C 297.34276 410.0297 299.93519 412.60513 303.04319 414.24413 C 312.58519 425.18313 324.08054 426.49275 334.17754 415.91075 C 342.74154 406.93775 357.99449 397.38611 356.78549 384.51311 C 356.27049 379.02511 351.28444 375.26164 347.26543 372.04564 C 346.50843 368.12864 342.95778 365.26311 340.16478 362.58511 C 342.44778 359.55711 348.05738 348.5482 349.83539 347.8782 L 349.67924 347.72625 C 349.44325 346.63225 350.6758 344.01176 351.14979 342.93576 C 352.24179 340.56676 353.1535 337.95398 354.1175 335.51298 C 360.53348 319.26041 374.14442 331.42534 383.13355 322.9958 L 383.13355 276.19029 C 382.0131 275.28902 380.66135 274.50438 379.03562 273.85702 C 380.11362 254.02002 358.68871 256.71032 345.33971 256.75032 C 344.05771 252.48732 337.73411 231.70345 333.56411 230.89245 L 331.88488 232.48064 C 330.75888 230.55564 329.69694 228.61218 328.55794 226.69018 L 330.25677 225.80645 C 331.10777 223.42345 344.94866 212.53082 346.53366 208.08982 C 352.08066 195.82582 339.48394 188.36206 332.32394 180.65706 C 322.76394 170.37106 315.53455 159.00534 300.25755 165.10634 C 300.25705 165.10669 300.2555 165.10791 300.25475 165.10845 C 300.25441 165.10872 300.2536 165.1089 300.25335 165.10915 L 288.64371 175.48843 C 288.6437 175.58473 288.64372 175.68067 288.64371 175.77694 C 287.18271 176.67294 285.63056 177.58218 284.24956 178.58218 C 277.27056 175.02718 264.04839 169.26725 256.24539 168.32125 C 256.31139 163.16125 256.73569 150.30507 255.44569 145.93107 C 252.12382 132.74107 243.39756 130.21689 233.11574 130.04843 L 233.11504 130.04773 z M 231.90079 135.0532 C 238.93854 135.38745 245.36592 137.01641 249.36392 142.28341 C 248.12392 142.74841 219.82548 142.3171 217.44248 142.2491 C 197.13848 141.6641 202.10863 157.03116 201.28463 170.49416 C 200.62863 181.41516 200.1274 177.93009 188.6344 181.26909 C 180.4934 183.63409 168.70332 190.45266 163.27932 191.61966 C 159.78032 190.74466 159.3276 190.19074 157.0806 187.29274 C 166.2256 180.30174 183.90294 173.15817 195.16294 171.59217 C 195.00994 166.08117 195.17352 160.40705 195.10412 154.96305 C 194.94512 142.42805 196.77428 135.39731 210.77528 135.59031 C 217.21528 135.67931 224.86304 134.71895 231.90079 135.0532 z M 308.56686 168.00333 C 312.03874 168.09643 315.8536 170.23308 320.19891 175.77624 C 302.25191 171.99624 302.52087 185.23576 291.74587 190.28776 C 285.54087 187.78776 278.10887 181.83435 271.42287 179.28735 C 270.33187 178.87135 261.35443 175.14002 261.15143 174.93802 C 268.26543 176.32502 278.80055 181.79243 285.54855 184.59043 C 293.06309 180.87377 299.69426 167.76533 308.56686 168.00333 z M 133.95095 169.40875 C 136.97267 169.43925 140.20527 171.00221 143.74621 174.93802 C 131.39821 175.87702 128.66285 182.89654 119.78185 191.28354 C 113.65485 197.06954 105.46703 203.04019 106.07703 212.00919 L 105.38307 211.31453 C 94.699645 200.54553 104.45012 193.01814 113.27712 185.14714 C 119.88243 179.25842 126.22878 169.3308 133.95095 169.40875 z M 120.82244 226.68948 C 123.19944 228.59848 124.50302 229.61264 125.83702 232.48064 C 123.56302 239.44864 118.57452 246.6275 116.50252 254.0305 C 115.25952 258.4715 113.23077 267.0555 109.12877 269.2675 L 93.196407 269.2514 C 71.657807 269.2064 73.874209 273.47692 73.951109 291.77392 L 73.967215 314.01564 C 71.054615 311.63564 68.628509 309.12088 67.801409 305.29388 C 67.080409 301.95788 67.268835 276.23524 67.863733 272.56224 C 70.160733 258.38024 87.35348 261.6093 97.66828 261.7733 C 109.00998 261.9533 105.97845 258.82135 109.62245 248.81635 C 112.44245 241.07135 116.31644 233.58548 120.82244 226.68948 z M 261.15143 251.49486 C 262.09743 251.58486 263.24197 251.51986 264.20597 251.49486 C 265.14097 252.63486 266.1648 253.56201 267.2318 254.57601 C 268.9278 255.06201 269.62795 255.13359 271.36895 255.33159 C 273.94595 257.60959 275.86076 259.89517 278.09776 262.50717 C 277.30876 263.33817 275.28984 265.25847 275.62584 266.24447 C 288.03384 302.61747 265.23784 338.08643 226.97584 339.39943 C 226.92684 337.42943 227.12384 334.66532 226.97584 332.95632 C 227.26084 330.62532 274.61758 329.42602 272.52858 283.75802 C 271.85058 268.95802 268.34843 263.81386 261.15143 251.49486 z M 353.15043 262.20186 C 361.31939 261.8412 369.9728 261.99703 373.78505 268.81303 C 371.77105 269.62603 352.63169 269.5792 349.83469 269.2682 C 346.84669 267.6452 346.35671 265.53617 345.33971 262.50717 C 347.75771 262.49967 350.42745 262.32208 353.15043 262.20186 z M 282.45059 271.02026 C 284.93859 271.79826 286.20901 272.10226 288.64301 271.02026 C 300.70901 297.28526 281.53553 334.85543 255.28253 346.07643 C 249.82153 348.41043 241.37743 351.07066 235.23543 350.17366 C 233.34343 349.89766 232.99151 345.61423 232.76351 343.93223 C 268.64551 338.71723 290.97959 306.28226 282.45059 271.02026 z M 192.33319 324.76676 C 201.67919 332.31176 210.06832 335.63617 222.10832 336.55217 C 222.05332 337.65717 222.10232 339.06673 222.10832 340.19773 C 216.08332 339.06373 193.68619 331.63676 192.33319 324.76676 z M 112.51313 338.47929 C 113.60513 339.73629 113.96761 340.27058 114.85061 341.65358 C 118.07061 348.59158 121.96118 354.23298 124.94418 360.36598 C 120.68018 370.56898 106.53878 374.88706 104.88378 386.52006 C 89.899375 372.21706 121.53115 360.55189 119.24615 354.24989 C 117.30915 348.90789 114.234 343.95491 112.149 338.52691 L 112.51313 338.47929 z M 195.16294 412.74206 L 202.57172 414.24413 L 202.5374 427.78719 C 202.5324 431.92419 202.22457 436.62837 203.26357 440.56837 L 203.52967 441.61386 C 192.05267 436.25786 195.71894 423.07206 195.16294 412.74206 z "
       transform="scale(2)" />
    <path
       transform="scale(2)"
       d="m 278.098,262.507 c 7.498,-3.057 22.561,-18.112 30.681,-23.838 2.373,-1.673 5.608,1.915 2.142,4.568 -10.083,7.717 -19.596,16.536 -29.834,24.02 0.432,1.164 1.012,2.597 1.363,3.763 8.529,35.262 -13.804,67.697 -49.686,72.912 -7.899,-0.509 -9.868,3.26 -10.656,-7.38 -12.04,-0.916 -20.429,-4.24 -29.775,-11.785 -0.5,-0.672 -4.62,-4.365 -5.709,-5.673 -5.781,-6.947 -8.07,-12.884 -10.705,-21.221 -0.734,-3.654 -1.738,-5.195 2.651,-6.177 2.354,1.889 3.615,9.906 5.032,13.25 6.838,16.144 23.363,26.656 40.764,26.85 1.335,0.015 2.268,-0.277 2.61,1.16 0.148,1.709 -0.049,4.474 0,6.444 38.262,-1.313 61.058,-36.783 48.65,-73.156 -0.336,-0.986 1.683,-2.906 2.472,-3.737 z"
       id="path2" />
    <path
       fill="#5661ee"
       transform="scale(2)"
       d="m 163.279,191.62 c 5.424,-1.167 17.214,-7.986 25.355,-10.351 11.493,-3.339 11.995,0.146 12.651,-10.775 0.824,-13.463 -4.147,-28.83 16.157,-28.245 2.383,0.068 30.682,0.499 31.922,0.034 1.786,4.793 0.434,23.201 0.912,29.309 3.559,1.423 7.374,1.551 10.875,3.346 0.203,0.202 9.181,3.934 10.272,4.35 6.686,2.547 14.118,8.5 20.323,11 10.775,-5.052 10.506,-18.292 28.453,-14.512 5.581,5.144 11.016,10.892 16.262,16.047 6.641,6.526 9.144,11.021 2.26,18.285 -5.16,5.445 -16.647,11.786 -10.163,16.582 1.139,1.922 2.2,3.866 3.326,5.791 -1.085,1.188 -0.094,2.997 0.502,4.223 -6.354,4.793 -39.567,29.128 -43.743,34.316 -2.434,1.082 -3.705,0.778 -6.193,0 -0.351,-1.166 -0.931,-2.599 -1.363,-3.763 10.238,-7.484 19.751,-16.303 29.834,-24.02 3.466,-2.653 0.231,-6.241 -2.142,-4.568 -8.12,5.726 -23.183,20.781 -30.681,23.838 -2.237,-2.612 -4.152,-4.897 -6.729,-7.175 -1.741,-0.198 -2.441,-0.27 -4.137,-0.756 -1.067,-1.014 -2.091,-1.941 -3.026,-3.081 -0.964,0.025 -2.109,0.09 -3.055,0 7.197,12.319 10.7,17.463 11.378,32.263 2.089,45.668 -45.268,46.867 -45.553,49.198 -0.342,-1.437 -1.275,-1.145 -2.61,-1.16 -17.401,-0.194 -33.926,-10.706 -40.764,-26.85 -1.417,-3.344 -2.678,-11.361 -5.032,-13.25 -4.389,0.982 -3.385,2.523 -2.651,6.177 -7.738,5.118 -15.154,9.978 -22.011,16.307 -2.344,2.164 -15.515,18.007 -16.22,4.849 h -1.155 c -0.391,0.825 -2.1,2.786 -2.955,3.721 -7.581,8.287 -7.697,21.405 -18.728,18.903 -0.883,-1.383 -1.245,-1.917 -2.337,-3.174 l -0.364,0.048 c -2.544,-5.399 -3.935,-13.35 -5.835,-19.181 -1.57,-7.34 -24.1396,-0.705 -32.3468,-5.331 l -0.0164,-22.241 c -0.0769,-18.297 -2.2931,-22.567 19.2455,-22.522 l 15.9327,0.016 c 4.102,-2.212 6.13,-10.796 7.373,-15.237 2.072,-7.403 7.061,-14.582 9.335,-21.55 -1.334,-2.868 -2.637,-3.882 -5.014,-5.791 -3.292,-5.058 -10.597,-9.868 -14.746,-14.681 -0.61,-8.969 7.578,-14.939 13.705,-20.725 8.881,-8.387 11.616,-15.407 23.964,-16.346 2.342,2.443 10.781,11.312 13.335,12.355 2.247,2.898 2.699,3.452 6.198,4.327 z"
       id="path3" />
    <path
       fill="#fc625d"
       transform="scale(2)"
       d="m 178.57,291.696 c -1.269,-6.552 1.099,-16.134 3.569,-22.217 9.869,-24.306 39.343,-36.491 63.753,-27.455 3.767,1.394 6.489,3.256 10.021,4.744 l 0.332,0.138 c 1.523,1.422 3.359,3.258 4.906,4.589 7.197,12.319 10.7,17.463 11.378,32.263 2.089,45.668 -45.268,46.867 -45.553,49.198 -0.342,-1.437 -1.275,-1.145 -2.61,-1.16 -17.401,-0.194 -33.926,-10.706 -40.764,-26.85 -1.417,-3.344 -2.678,-11.361 -5.032,-13.25 z"
       id="path4" />
    <path
       fill="#5661ee"
       transform="scale(2)"
       d="m 170.807,291.696 c -5.898,-38.353 36.702,-70.891 72.901,-53.119 4.803,2.358 8.739,4.457 12.537,8.329 l -0.332,-0.138 c -3.532,-1.488 -6.254,-3.35 -10.021,-4.744 -24.41,-9.036 -53.884,3.149 -63.753,27.455 -2.47,6.083 -4.838,15.665 -3.569,22.217 -4.389,0.982 -3.385,2.523 -2.651,6.177 -7.738,5.118 -15.154,9.978 -22.011,16.307 -2.344,2.164 -15.515,18.007 -16.22,4.849 1.804,-1.307 4.397,-4.407 5.993,-6.095 9.148,-9.676 17.17,-13.848 27.126,-21.238 z"
       id="path5" />
    <path
       transform="scale(2)"
       d="m 165.758,289.08 c -4.469,-49.945 57.617,-80.909 95.911,-43.992 2.102,2.026 3.581,3.437 2.537,6.407 -0.964,0.025 -2.109,0.09 -3.055,0 -1.547,-1.331 -3.383,-3.167 -4.906,-4.589 -3.798,-3.872 -7.734,-5.971 -12.537,-8.329 -36.199,-17.772 -78.799,14.766 -72.901,53.119 -9.956,7.39 -17.978,11.562 -27.126,21.238 -1.596,1.688 -4.189,4.788 -5.993,6.095 h -1.155 c -0.798,-1.048 -1.082,-1.934 -1.584,-3.146 4.434,-8.805 22.534,-21.367 30.809,-26.803 z"
       id="path6" />
    <path
       id="path7"
       d="M 332.38627 236.70392 C 326.03227 241.49692 292.81901 265.83226 288.64301 271.02026 C 300.70901 297.28526 281.53623 334.85613 255.28323 346.07713 C 249.82223 348.41113 241.37813 351.07066 235.23613 350.17366 C 233.34413 349.89766 232.99221 345.61423 232.76421 343.93223 C 224.86521 343.42323 222.89632 347.19217 222.10832 336.55217 C 222.05332 337.65717 222.10232 339.06673 222.10832 340.19773 C 216.08332 339.06373 193.68619 331.63676 192.33319 324.76676 C 191.83319 324.09476 187.71295 320.40194 186.62395 319.09394 C 180.84295 312.14694 178.55405 306.2102 175.91905 297.8732 C 168.18105 302.9912 160.76471 307.8512 153.90771 314.1802 C 151.56371 316.3442 138.39325 332.18681 137.68825 319.02881 L 136.53282 319.02881 C 136.14182 319.85381 134.43271 321.81501 133.57771 322.75001 C 125.99671 331.03701 125.88091 344.15488 114.84991 341.65288 C 118.06991 348.59088 121.96118 354.23298 124.94418 360.36598 C 120.68018 370.56898 106.53878 374.88706 104.88378 386.52006 C 108.80878 390.53306 123.39715 406.03927 127.26415 408.22327 C 140.78115 415.52227 147.19376 396.19266 157.25076 392.13966 C 158.35476 391.69366 165.81177 396.64892 167.15177 397.36992 C 176.15877 402.21692 185.40794 405.79789 195.16294 408.79189 L 195.16294 412.74206 L 202.57172 414.24413 L 202.5367 427.78719 C 202.5317 431.92419 202.22527 436.62767 203.26427 440.56767 L 203.52967 441.61386 C 205.01267 441.78686 212.36727 441.62767 214.20727 441.62367 L 236.7627 441.7259 C 253.2297 441.9449 249.37792 420.72789 249.36392 408.79189 C 261.96892 405.57389 272.50214 401.04799 283.39314 394.09199 C 288.06214 391.10999 298.41927 403.92603 302.97527 407.30103 C 315.32927 416.35303 324.42479 398.61216 332.70279 392.14316 C 357.07079 373.09916 333.35189 367.72794 325.74989 353.58394 C 330.30789 344.02294 335.50898 337.69134 339.89098 326.32834 C 341.27498 322.74134 342.06121 315.63531 346.66321 315.00931 C 353.99421 314.62631 372.83598 318.13199 373.60298 306.92899 C 374.01098 300.96399 373.75215 294.76809 373.76615 288.75509 L 373.82987 276.32894 C 373.84787 274.24294 373.97705 270.78503 373.78505 268.81303 C 371.77105 269.62603 352.63169 269.5792 349.83469 269.2682 C 346.84669 267.6452 346.35671 265.53617 345.33971 262.50717 C 339.99071 261.90617 340.06468 256.52171 338.82168 252.18671 C 337.22668 246.62771 335.29027 241.72492 332.38627 236.70392 z "
       transform="scale(2)"
       style="fill:#fc625d;fill-opacity:1" />
    <path
       fill="#fc625d"
       transform="scale(2)"
       d="m 285.548,399.2 c 3.032,2.872 6.109,5.62 9.107,8.545 -9.648,5.711 -20.409,10.573 -31.169,13.706 l 0.025,11.478 c 0.031,20.013 -4.32,21.944 -23.301,21.972 L 220.104,454.9 c -6.153,-0.053 -10.699,-2.641 -13.536,-8.201 9.707,-0.108 19.479,0.099 29.194,0.049 15.277,-0.079 18.828,-9.378 18.834,-22.916 l -0.011,-11.09 c 12.72,-3.844 19.533,-6.73 30.963,-13.542 z"
       id="path12" />
    <path
       fill="#fc625d"
       transform="scale(2)"
       d="m 379.035,273.857 c 12.976,5.167 8.477,19.062 8.541,31.461 -0.063,1.868 -0.078,3.331 0,5.195 0.01,1.528 0.097,3.911 0,5.37 -8.145,21.021 -25.855,0.368 -33.459,19.63 -0.964,2.441 -1.875,5.053 -2.967,7.422 -0.474,1.076 -1.707,3.697 -1.471,4.791 l 0.156,0.152 c -1.778,0.67 -7.387,11.679 -9.67,14.707 -2.762,-2.775 -5.507,-6.086 -8.281,-9.001 6.471,-11.614 11.792,-20.574 15.381,-33.838 l 10.52,0.027 c 20.613,0.038 21.276,-6.233 21.26,-25.293 z"
       id="path13" />
    <path
       fill="#fc625d"
       transform="scale(2)"
       d="m 347.265,372.045 c 4.019,3.216 9.005,6.98 9.52,12.468 1.209,12.873 -14.044,22.424 -22.608,31.397 -10.097,10.582 -21.592,9.273 -31.134,-1.666 0.457,-0.02 2.584,0.277 3.011,0.374 12.169,2.747 18.446,-6.618 26.118,-14.198 9.022,-9.621 18.607,-13.614 15.093,-28.375 z"
       id="path14" />
    <path
       fill="#fc625d"
       transform="scale(2)"
       d="m 157.507,397.609 c 3.342,1.757 7.246,4.232 10.686,6.158 -15.176,14.788 -25.705,32.246 -43.249,8.975 3.067,0.652 3.797,2.177 8.778,2.07 9.017,-0.194 17.545,-10.808 23.785,-17.203 z"
       id="path15" />
    <path
       fill="#5661ee"
       transform="scale(2)"
       d="m 81.2406,320.737 c 6.745,-0.113 13.6783,0 20.4384,0 0.342,3.696 1.304,6.473 2.365,9.991 -10.5057,0.095 -17.3819,0.31 -22.8034,-9.991 z"
       id="path16" />
    <path
       fill="#0830b7"
       transform="scale(2)"
       d="m 256.245,168.32 c -3.631,-1.193 -1.328,-21.775 -0.8,-22.39 1.29,4.374 0.866,17.23 0.8,22.39 z"
       id="path17" />
  </g>
</svg>
